# xmcd
#
# Track frame offsets: 
#        150
#        12448
#        24392
#        35593
#        46326
#        55158
#        65582
#        77440
#        86731
#        96557
#        107951
#        119955
#
# Disc length: 1744 seconds
#
# Revision: 1
# Processed by: cddbd v1.5.2PL0 Copyright (c) Steve Scherf et al.
# Submitted via: ExactAudioCopyFreeDBPlugin 1.0
#
DISCID=a506ce0c
DTITLE=Roy Acuff - Great Train Songs
DYEAR=1965
DGENRE=Trains
TTITLE0=Tennessee Central (No. 9)
TTITLE1=Wabash Cannonball
TTITLE2=Night Train to Memphis
TTITLE3=Sunshine Special
TTITLE4=That Glory Bound Train
TTITLE5=Wreck of the Old 97
TTITLE6=Pan American
TTITLE7=Freight Train Blues
TTITLE8=Fireball Mail
TTITLE9=The Streamline Cannonball
TTITLE10=The Midnight Train
TTITLE11=Life's Railway to Heaven
EXTD=YEAR: 1965
EXTT0=
EXTT1=
EXTT2=
EXTT3=
EXTT4=
EXTT5=
EXTT6=
EXTT7=
EXTT8=
EXTT9=
EXTT10=
EXTT11=
PLAYORDER=
